<mxfile host="Electron" modified="2023-09-04T14:02:08.530Z" agent="Mozilla/5.0 (X11; Linux x86_64) AppleWebKit/537.36 (KHTML, like Gecko) draw.io/21.6.8 Chrome/114.0.5735.289 Electron/25.5.0 Safari/537.36" etag="4-Ld_b55lIw3dlCkqe6T" version="21.6.8" type="device">
  <diagram name="第 1 页" id="fGRog7L1SBVwcqy61mCd">
    <mxGraphModel dx="1969" dy="992" grid="1" gridSize="10" guides="1" tooltips="1" connect="1" arrows="1" fold="1" page="1" pageScale="1" pageWidth="827" pageHeight="1169" math="0" shadow="0">
      <root>
        <mxCell id="0" />
        <mxCell id="1" parent="0" />
        <mxCell id="WxPixu1MxdqewnaVAmA1-2" style="edgeStyle=orthogonalEdgeStyle;rounded=0;orthogonalLoop=1;jettySize=auto;html=1;exitX=0.5;exitY=1;exitDx=0;exitDy=0;exitPerimeter=0;" edge="1" parent="1" source="1JeE4GAo5M8hugBh_JfM-1" target="WxPixu1MxdqewnaVAmA1-1">
          <mxGeometry relative="1" as="geometry" />
        </mxCell>
        <mxCell id="WxPixu1MxdqewnaVAmA1-128" value="" style="edgeStyle=elbowEdgeStyle;rounded=0;orthogonalLoop=1;jettySize=auto;html=1;elbow=vertical;" edge="1" parent="1" source="1JeE4GAo5M8hugBh_JfM-1" target="WxPixu1MxdqewnaVAmA1-1">
          <mxGeometry relative="1" as="geometry" />
        </mxCell>
        <mxCell id="1JeE4GAo5M8hugBh_JfM-1" value="kind2Flow.run" style="strokeWidth=2;html=1;shape=mxgraph.flowchart.start_2;whiteSpace=wrap;" parent="1" vertex="1">
          <mxGeometry x="345.5" y="30" width="103" height="40" as="geometry" />
        </mxCell>
        <mxCell id="WxPixu1MxdqewnaVAmA1-4" style="edgeStyle=elbowEdgeStyle;rounded=0;orthogonalLoop=1;jettySize=auto;html=1;exitX=0.5;exitY=1;exitDx=0;exitDy=0;entryX=0.5;entryY=0;entryDx=0;entryDy=0;elbow=vertical;" edge="1" parent="1" source="WxPixu1MxdqewnaVAmA1-1" target="WxPixu1MxdqewnaVAmA1-12">
          <mxGeometry relative="1" as="geometry">
            <mxPoint x="754.5" y="310" as="targetPoint" />
            <mxPoint x="434.5" y="170" as="sourcePoint" />
            <Array as="points">
              <mxPoint x="467" y="250" />
            </Array>
          </mxGeometry>
        </mxCell>
        <mxCell id="WxPixu1MxdqewnaVAmA1-5" value="Interpreter" style="edgeLabel;html=1;align=center;verticalAlign=middle;resizable=0;points=[];" vertex="1" connectable="0" parent="WxPixu1MxdqewnaVAmA1-4">
          <mxGeometry x="-0.2637" y="2" relative="1" as="geometry">
            <mxPoint x="178" y="52" as="offset" />
          </mxGeometry>
        </mxCell>
        <mxCell id="WxPixu1MxdqewnaVAmA1-23" style="edgeStyle=orthogonalEdgeStyle;rounded=0;orthogonalLoop=1;jettySize=auto;html=1;exitX=0.5;exitY=1;exitDx=0;exitDy=0;entryX=0;entryY=0.5;entryDx=0;entryDy=0;entryPerimeter=0;" edge="1" parent="1" source="WxPixu1MxdqewnaVAmA1-1" target="WxPixu1MxdqewnaVAmA1-11">
          <mxGeometry relative="1" as="geometry">
            <mxPoint x="547" y="200" as="sourcePoint" />
            <mxPoint x="509.5" y="1902.5" as="targetPoint" />
            <Array as="points">
              <mxPoint x="397" y="250" />
              <mxPoint x="140" y="250" />
              <mxPoint x="140" y="1763" />
            </Array>
          </mxGeometry>
        </mxCell>
        <mxCell id="WxPixu1MxdqewnaVAmA1-30" value="&lt;div&gt;&amp;nbsp;&lt;/div&gt;nothing &lt;br&gt;or&lt;div&gt;&amp;nbsp;Some modules, including the interpreter or contract&lt;/div&gt;&lt;div&gt;没有模块激活，&lt;br&gt;或者合同检查器、解释器模块和其他模块一起激活了&lt;/div&gt;" style="edgeLabel;html=1;align=center;verticalAlign=middle;resizable=0;points=[];" vertex="1" connectable="0" parent="WxPixu1MxdqewnaVAmA1-23">
          <mxGeometry x="-0.0517" relative="1" as="geometry">
            <mxPoint y="-148" as="offset" />
          </mxGeometry>
        </mxCell>
        <mxCell id="WxPixu1MxdqewnaVAmA1-32" style="edgeStyle=elbowEdgeStyle;rounded=0;orthogonalLoop=1;jettySize=auto;html=1;exitX=0.5;exitY=1;exitDx=0;exitDy=0;elbow=vertical;" edge="1" parent="1" source="WxPixu1MxdqewnaVAmA1-1" target="WxPixu1MxdqewnaVAmA1-31">
          <mxGeometry relative="1" as="geometry" />
        </mxCell>
        <mxCell id="WxPixu1MxdqewnaVAmA1-33" value="CONTRACTCK" style="edgeLabel;html=1;align=center;verticalAlign=middle;resizable=0;points=[];" vertex="1" connectable="0" parent="WxPixu1MxdqewnaVAmA1-32">
          <mxGeometry x="0.4788" y="-1" relative="1" as="geometry">
            <mxPoint x="1" y="3" as="offset" />
          </mxGeometry>
        </mxCell>
        <mxCell id="WxPixu1MxdqewnaVAmA1-84" style="edgeStyle=orthogonalEdgeStyle;rounded=0;orthogonalLoop=1;jettySize=auto;html=1;exitX=0.5;exitY=1;exitDx=0;exitDy=0;" edge="1" parent="1" source="WxPixu1MxdqewnaVAmA1-1" target="WxPixu1MxdqewnaVAmA1-83">
          <mxGeometry relative="1" as="geometry">
            <Array as="points">
              <mxPoint x="397" y="250" />
              <mxPoint x="860" y="250" />
            </Array>
          </mxGeometry>
        </mxCell>
        <mxCell id="WxPixu1MxdqewnaVAmA1-85" value="MCS" style="edgeLabel;html=1;align=center;verticalAlign=middle;resizable=0;points=[];" vertex="1" connectable="0" parent="WxPixu1MxdqewnaVAmA1-84">
          <mxGeometry x="0.8853" y="2" relative="1" as="geometry">
            <mxPoint as="offset" />
          </mxGeometry>
        </mxCell>
        <mxCell id="WxPixu1MxdqewnaVAmA1-90" style="edgeStyle=orthogonalEdgeStyle;rounded=0;orthogonalLoop=1;jettySize=auto;html=1;exitX=0.5;exitY=1;exitDx=0;exitDy=0;entryX=0.5;entryY=0;entryDx=0;entryDy=0;" edge="1" parent="1" source="WxPixu1MxdqewnaVAmA1-1" target="WxPixu1MxdqewnaVAmA1-91">
          <mxGeometry relative="1" as="geometry">
            <mxPoint x="1090" y="300" as="targetPoint" />
            <Array as="points">
              <mxPoint x="397" y="250" />
              <mxPoint x="1080" y="250" />
            </Array>
          </mxGeometry>
        </mxCell>
        <mxCell id="WxPixu1MxdqewnaVAmA1-92" value="Some modules, &lt;br&gt;not including the interpreter" style="edgeLabel;html=1;align=center;verticalAlign=middle;resizable=0;points=[];" vertex="1" connectable="0" parent="WxPixu1MxdqewnaVAmA1-90">
          <mxGeometry x="0.877" y="1" relative="1" as="geometry">
            <mxPoint x="-1" y="20" as="offset" />
          </mxGeometry>
        </mxCell>
        <mxCell id="WxPixu1MxdqewnaVAmA1-1" value="Flags.&lt;br&gt;enabled&amp;nbsp;" style="rhombus;whiteSpace=wrap;html=1;" vertex="1" parent="1">
          <mxGeometry x="357" y="130" width="80" height="70" as="geometry" />
        </mxCell>
        <mxCell id="WxPixu1MxdqewnaVAmA1-3" value="确定哪些模块激活了" style="text;html=1;strokeColor=none;fillColor=none;align=center;verticalAlign=middle;whiteSpace=wrap;rounded=0;" vertex="1" parent="1">
          <mxGeometry x="220" y="150" width="130" height="30" as="geometry" />
        </mxCell>
        <mxCell id="WxPixu1MxdqewnaVAmA1-11" value="exit" style="strokeWidth=2;html=1;shape=mxgraph.flowchart.start_1;whiteSpace=wrap;" vertex="1" parent="1">
          <mxGeometry x="359.5" y="1740" width="75" height="45" as="geometry" />
        </mxCell>
        <mxCell id="WxPixu1MxdqewnaVAmA1-20" value="" style="group" vertex="1" connectable="0" parent="1">
          <mxGeometry x="507" y="330" width="240" height="170" as="geometry" />
        </mxCell>
        <mxCell id="WxPixu1MxdqewnaVAmA1-12" value="ISys.&lt;br&gt;trans_sys_of_analysis" style="rounded=0;whiteSpace=wrap;html=1;" vertex="1" parent="WxPixu1MxdqewnaVAmA1-20">
          <mxGeometry x="120" width="120" height="60" as="geometry" />
        </mxCell>
        <mxCell id="WxPixu1MxdqewnaVAmA1-14" value="建立转换系统" style="text;html=1;strokeColor=none;fillColor=none;align=center;verticalAlign=middle;whiteSpace=wrap;rounded=0;" vertex="1" parent="WxPixu1MxdqewnaVAmA1-20">
          <mxGeometry y="15" width="110" height="30" as="geometry" />
        </mxCell>
        <mxCell id="WxPixu1MxdqewnaVAmA1-17" value="Interpreter.main" style="rounded=0;whiteSpace=wrap;html=1;" vertex="1" parent="WxPixu1MxdqewnaVAmA1-20">
          <mxGeometry x="120" y="110" width="120" height="60" as="geometry" />
        </mxCell>
        <mxCell id="WxPixu1MxdqewnaVAmA1-18" style="edgeStyle=orthogonalEdgeStyle;rounded=0;orthogonalLoop=1;jettySize=auto;html=1;exitX=0.5;exitY=1;exitDx=0;exitDy=0;entryX=0.5;entryY=0;entryDx=0;entryDy=0;" edge="1" parent="WxPixu1MxdqewnaVAmA1-20" source="WxPixu1MxdqewnaVAmA1-12" target="WxPixu1MxdqewnaVAmA1-17">
          <mxGeometry relative="1" as="geometry" />
        </mxCell>
        <mxCell id="WxPixu1MxdqewnaVAmA1-19" value="解释器" style="text;html=1;strokeColor=none;fillColor=none;align=center;verticalAlign=middle;whiteSpace=wrap;rounded=0;" vertex="1" parent="WxPixu1MxdqewnaVAmA1-20">
          <mxGeometry x="40" y="125" width="60" height="30" as="geometry" />
        </mxCell>
        <mxCell id="WxPixu1MxdqewnaVAmA1-39" style="edgeStyle=orthogonalEdgeStyle;rounded=0;orthogonalLoop=1;jettySize=auto;html=1;exitX=0.5;exitY=1;exitDx=0;exitDy=0;entryX=0.5;entryY=0;entryDx=0;entryDy=0;" edge="1" parent="1" source="WxPixu1MxdqewnaVAmA1-31" target="WxPixu1MxdqewnaVAmA1-37">
          <mxGeometry relative="1" as="geometry" />
        </mxCell>
        <mxCell id="WxPixu1MxdqewnaVAmA1-42" value="" style="group" vertex="1" connectable="0" parent="1">
          <mxGeometry x="322" y="330" width="150" height="60" as="geometry" />
        </mxCell>
        <mxCell id="WxPixu1MxdqewnaVAmA1-31" value="check_solver_is_supported" style="rounded=0;whiteSpace=wrap;html=1;" vertex="1" parent="WxPixu1MxdqewnaVAmA1-42">
          <mxGeometry width="150" height="60" as="geometry" />
        </mxCell>
        <mxCell id="WxPixu1MxdqewnaVAmA1-41" value="检查支持的求解器" style="text;html=1;strokeColor=none;fillColor=none;align=center;verticalAlign=middle;whiteSpace=wrap;rounded=0;" vertex="1" parent="WxPixu1MxdqewnaVAmA1-42">
          <mxGeometry x="20" width="110" height="30" as="geometry" />
        </mxCell>
        <mxCell id="WxPixu1MxdqewnaVAmA1-43" value="" style="group" vertex="1" connectable="0" parent="1">
          <mxGeometry x="314.5" y="440" width="165" height="75" as="geometry" />
        </mxCell>
        <mxCell id="WxPixu1MxdqewnaVAmA1-37" value="&lt;br&gt;satisfy_input_requirements" style="rounded=0;whiteSpace=wrap;html=1;" vertex="1" parent="WxPixu1MxdqewnaVAmA1-43">
          <mxGeometry width="165" height="75" as="geometry" />
        </mxCell>
        <mxCell id="WxPixu1MxdqewnaVAmA1-40" value="判断是否是顶点；&lt;br&gt;判断是否存在断言" style="text;html=1;strokeColor=none;fillColor=none;align=center;verticalAlign=middle;whiteSpace=wrap;rounded=0;" vertex="1" parent="WxPixu1MxdqewnaVAmA1-43">
          <mxGeometry x="22.5" width="120" height="30" as="geometry" />
        </mxCell>
        <mxCell id="WxPixu1MxdqewnaVAmA1-47" style="edgeStyle=orthogonalEdgeStyle;rounded=0;orthogonalLoop=1;jettySize=auto;html=1;exitX=0.5;exitY=1;exitDx=0;exitDy=0;entryX=0.5;entryY=0;entryDx=0;entryDy=0;entryPerimeter=0;" edge="1" parent="1" source="WxPixu1MxdqewnaVAmA1-44" target="WxPixu1MxdqewnaVAmA1-46">
          <mxGeometry relative="1" as="geometry" />
        </mxCell>
        <mxCell id="WxPixu1MxdqewnaVAmA1-44" value="ISys.&lt;br&gt;trans_sys_of_analysis" style="rounded=0;whiteSpace=wrap;html=1;" vertex="1" parent="1">
          <mxGeometry x="324.5" y="569.75" width="145" height="60" as="geometry" />
        </mxCell>
        <mxCell id="WxPixu1MxdqewnaVAmA1-45" style="edgeStyle=orthogonalEdgeStyle;rounded=0;orthogonalLoop=1;jettySize=auto;html=1;exitX=0.5;exitY=1;exitDx=0;exitDy=0;" edge="1" parent="1" source="WxPixu1MxdqewnaVAmA1-37" target="WxPixu1MxdqewnaVAmA1-44">
          <mxGeometry relative="1" as="geometry" />
        </mxCell>
        <mxCell id="WxPixu1MxdqewnaVAmA1-55" style="edgeStyle=orthogonalEdgeStyle;rounded=0;orthogonalLoop=1;jettySize=auto;html=1;" edge="1" parent="1" source="WxPixu1MxdqewnaVAmA1-46" target="WxPixu1MxdqewnaVAmA1-52">
          <mxGeometry relative="1" as="geometry" />
        </mxCell>
        <mxCell id="WxPixu1MxdqewnaVAmA1-56" value="no" style="edgeLabel;html=1;align=center;verticalAlign=middle;resizable=0;points=[];" vertex="1" connectable="0" parent="WxPixu1MxdqewnaVAmA1-55">
          <mxGeometry x="0.1726" y="-2" relative="1" as="geometry">
            <mxPoint x="-54" y="-7" as="offset" />
          </mxGeometry>
        </mxCell>
        <mxCell id="WxPixu1MxdqewnaVAmA1-60" style="edgeStyle=orthogonalEdgeStyle;rounded=0;orthogonalLoop=1;jettySize=auto;html=1;exitX=0.5;exitY=1;exitDx=0;exitDy=0;exitPerimeter=0;entryX=0.5;entryY=0;entryDx=0;entryDy=0;entryPerimeter=0;" edge="1" parent="1" source="WxPixu1MxdqewnaVAmA1-46" target="WxPixu1MxdqewnaVAmA1-66">
          <mxGeometry relative="1" as="geometry">
            <mxPoint x="388.25" y="864.75" as="targetPoint" />
          </mxGeometry>
        </mxCell>
        <mxCell id="WxPixu1MxdqewnaVAmA1-62" value="yes" style="edgeLabel;html=1;align=center;verticalAlign=middle;resizable=0;points=[];" vertex="1" connectable="0" parent="WxPixu1MxdqewnaVAmA1-60">
          <mxGeometry x="0.1544" y="3" relative="1" as="geometry">
            <mxPoint x="-3" y="-6" as="offset" />
          </mxGeometry>
        </mxCell>
        <mxCell id="WxPixu1MxdqewnaVAmA1-67" style="edgeStyle=orthogonalEdgeStyle;rounded=0;orthogonalLoop=1;jettySize=auto;html=1;entryX=0.5;entryY=0;entryDx=0;entryDy=0;entryPerimeter=0;" edge="1" parent="1" source="WxPixu1MxdqewnaVAmA1-66" target="WxPixu1MxdqewnaVAmA1-72">
          <mxGeometry relative="1" as="geometry">
            <mxPoint x="388.25" y="1074.75" as="targetPoint" />
          </mxGeometry>
        </mxCell>
        <mxCell id="WxPixu1MxdqewnaVAmA1-73" value="Unrealizable&lt;br&gt;合约不可实现" style="edgeLabel;html=1;align=center;verticalAlign=middle;resizable=0;points=[];" vertex="1" connectable="0" parent="WxPixu1MxdqewnaVAmA1-67">
          <mxGeometry x="-0.0571" y="2" relative="1" as="geometry">
            <mxPoint as="offset" />
          </mxGeometry>
        </mxCell>
        <mxCell id="WxPixu1MxdqewnaVAmA1-77" value="" style="edgeStyle=orthogonalEdgeStyle;rounded=0;orthogonalLoop=1;jettySize=auto;html=1;" edge="1" parent="1" source="WxPixu1MxdqewnaVAmA1-72" target="WxPixu1MxdqewnaVAmA1-76">
          <mxGeometry relative="1" as="geometry" />
        </mxCell>
        <mxCell id="WxPixu1MxdqewnaVAmA1-79" value="需要检查合同可满足性" style="edgeLabel;html=1;align=center;verticalAlign=middle;resizable=0;points=[];" vertex="1" connectable="0" parent="WxPixu1MxdqewnaVAmA1-77">
          <mxGeometry x="-0.24" y="1" relative="1" as="geometry">
            <mxPoint as="offset" />
          </mxGeometry>
        </mxCell>
        <mxCell id="WxPixu1MxdqewnaVAmA1-81" style="edgeStyle=orthogonalEdgeStyle;rounded=0;orthogonalLoop=1;jettySize=auto;html=1;exitX=0.5;exitY=1;exitDx=0;exitDy=0;" edge="1" parent="1" source="WxPixu1MxdqewnaVAmA1-76" target="WxPixu1MxdqewnaVAmA1-11">
          <mxGeometry relative="1" as="geometry" />
        </mxCell>
        <mxCell id="WxPixu1MxdqewnaVAmA1-76" value="ContractChecker.&lt;br&gt;check_contract_satisfiability" style="whiteSpace=wrap;html=1;strokeWidth=2;" vertex="1" parent="1">
          <mxGeometry x="314.5" y="1264.75" width="165" height="60" as="geometry" />
        </mxCell>
        <mxCell id="WxPixu1MxdqewnaVAmA1-78" value="检查可满足性" style="text;html=1;strokeColor=none;fillColor=none;align=center;verticalAlign=middle;whiteSpace=wrap;rounded=0;" vertex="1" parent="1">
          <mxGeometry x="400.75" y="1234.75" width="82.5" height="30" as="geometry" />
        </mxCell>
        <mxCell id="WxPixu1MxdqewnaVAmA1-80" value="" style="group" vertex="1" connectable="0" parent="1">
          <mxGeometry x="344.5" y="720" width="165" height="70" as="geometry" />
        </mxCell>
        <mxCell id="WxPixu1MxdqewnaVAmA1-46" value="has_contract" style="strokeWidth=2;html=1;shape=mxgraph.flowchart.decision;whiteSpace=wrap;" vertex="1" parent="WxPixu1MxdqewnaVAmA1-80">
          <mxGeometry width="105" height="70" as="geometry" />
        </mxCell>
        <mxCell id="WxPixu1MxdqewnaVAmA1-57" value="是否有合同" style="text;html=1;strokeColor=none;fillColor=none;align=center;verticalAlign=middle;whiteSpace=wrap;rounded=0;" vertex="1" parent="WxPixu1MxdqewnaVAmA1-80">
          <mxGeometry x="80" width="85" height="30" as="geometry" />
        </mxCell>
        <mxCell id="WxPixu1MxdqewnaVAmA1-82" value="" style="group" vertex="1" connectable="0" parent="1">
          <mxGeometry x="472" y="870" width="177.5" height="80" as="geometry" />
        </mxCell>
        <mxCell id="WxPixu1MxdqewnaVAmA1-52" value="Realizability.Realizable Term.t_true" style="rounded=0;whiteSpace=wrap;html=1;" vertex="1" parent="WxPixu1MxdqewnaVAmA1-82">
          <mxGeometry x="47.5" y="30" width="130" height="50" as="geometry" />
        </mxCell>
        <mxCell id="WxPixu1MxdqewnaVAmA1-54" value="设置可实现标志符为TRUE" style="text;html=1;strokeColor=none;fillColor=none;align=center;verticalAlign=middle;whiteSpace=wrap;rounded=0;" vertex="1" parent="WxPixu1MxdqewnaVAmA1-82">
          <mxGeometry width="102.5" height="30" as="geometry" />
        </mxCell>
        <mxCell id="WxPixu1MxdqewnaVAmA1-87" value="" style="edgeStyle=orthogonalEdgeStyle;rounded=0;orthogonalLoop=1;jettySize=auto;html=1;" edge="1" parent="1" source="WxPixu1MxdqewnaVAmA1-83" target="WxPixu1MxdqewnaVAmA1-86">
          <mxGeometry relative="1" as="geometry" />
        </mxCell>
        <mxCell id="WxPixu1MxdqewnaVAmA1-83" value="ISys.&lt;br style=&quot;border-color: var(--border-color);&quot;&gt;trans_sys_of_analysis" style="rounded=0;whiteSpace=wrap;html=1;" vertex="1" parent="1">
          <mxGeometry x="800" y="330" width="120" height="60" as="geometry" />
        </mxCell>
        <mxCell id="WxPixu1MxdqewnaVAmA1-126" style="edgeStyle=orthogonalEdgeStyle;rounded=0;orthogonalLoop=1;jettySize=auto;html=1;exitX=0.5;exitY=1;exitDx=0;exitDy=0;entryX=1;entryY=0.5;entryDx=0;entryDy=0;entryPerimeter=0;" edge="1" parent="1" source="WxPixu1MxdqewnaVAmA1-86" target="WxPixu1MxdqewnaVAmA1-11">
          <mxGeometry relative="1" as="geometry" />
        </mxCell>
        <mxCell id="WxPixu1MxdqewnaVAmA1-86" value="PostAnalysis.&lt;br&gt;run_mcs_post_analysis" style="whiteSpace=wrap;html=1;rounded=0;" vertex="1" parent="1">
          <mxGeometry x="790" y="440" width="140" height="60" as="geometry" />
        </mxCell>
        <mxCell id="WxPixu1MxdqewnaVAmA1-104" style="edgeStyle=orthogonalEdgeStyle;rounded=0;orthogonalLoop=1;jettySize=auto;html=1;exitX=0.5;exitY=1;exitDx=0;exitDy=0;entryX=0.5;entryY=0;entryDx=0;entryDy=0;entryPerimeter=0;" edge="1" parent="1" source="WxPixu1MxdqewnaVAmA1-91" target="WxPixu1MxdqewnaVAmA1-103">
          <mxGeometry relative="1" as="geometry" />
        </mxCell>
        <mxCell id="WxPixu1MxdqewnaVAmA1-91" value="ISys.&lt;br style=&quot;border-color: var(--border-color);&quot;&gt;trans_sys_of_analysis" style="rounded=0;whiteSpace=wrap;html=1;" vertex="1" parent="1">
          <mxGeometry x="1020" y="330" width="120" height="60" as="geometry" />
        </mxCell>
        <mxCell id="WxPixu1MxdqewnaVAmA1-94" style="edgeStyle=orthogonalEdgeStyle;rounded=0;orthogonalLoop=1;jettySize=auto;html=1;exitX=1;exitY=0.5;exitDx=0;exitDy=0;exitPerimeter=0;entryX=0.5;entryY=0;entryDx=0;entryDy=0;" edge="1" parent="1" source="WxPixu1MxdqewnaVAmA1-93" target="WxPixu1MxdqewnaVAmA1-91">
          <mxGeometry relative="1" as="geometry">
            <Array as="points">
              <mxPoint x="1270" y="1250" />
              <mxPoint x="1270" y="280" />
              <mxPoint x="1080" y="280" />
            </Array>
          </mxGeometry>
        </mxCell>
        <mxCell id="WxPixu1MxdqewnaVAmA1-95" value="还存在未循环过的参数" style="edgeLabel;html=1;align=center;verticalAlign=middle;resizable=0;points=[];" vertex="1" connectable="0" parent="WxPixu1MxdqewnaVAmA1-94">
          <mxGeometry x="-0.2517" y="2" relative="1" as="geometry">
            <mxPoint as="offset" />
          </mxGeometry>
        </mxCell>
        <mxCell id="WxPixu1MxdqewnaVAmA1-96" style="edgeStyle=orthogonalEdgeStyle;rounded=0;orthogonalLoop=1;jettySize=auto;html=1;exitX=0.5;exitY=1;exitDx=0;exitDy=0;exitPerimeter=0;entryX=0.5;entryY=0;entryDx=0;entryDy=0;" edge="1" parent="1" source="WxPixu1MxdqewnaVAmA1-93" target="WxPixu1MxdqewnaVAmA1-99">
          <mxGeometry relative="1" as="geometry">
            <mxPoint x="1070" y="1440" as="targetPoint" />
          </mxGeometry>
        </mxCell>
        <mxCell id="WxPixu1MxdqewnaVAmA1-97" value="None" style="edgeLabel;html=1;align=center;verticalAlign=middle;resizable=0;points=[];" vertex="1" connectable="0" parent="WxPixu1MxdqewnaVAmA1-96">
          <mxGeometry x="-0.032" y="1" relative="1" as="geometry">
            <mxPoint as="offset" />
          </mxGeometry>
        </mxCell>
        <mxCell id="WxPixu1MxdqewnaVAmA1-93" value="ISys.&lt;br&gt;next_analysis_of_strategy" style="strokeWidth=2;html=1;shape=mxgraph.flowchart.decision;whiteSpace=wrap;" vertex="1" parent="1">
          <mxGeometry x="990" y="1194.75" width="180" height="110" as="geometry" />
        </mxCell>
        <mxCell id="WxPixu1MxdqewnaVAmA1-100" style="edgeStyle=orthogonalEdgeStyle;rounded=0;orthogonalLoop=1;jettySize=auto;html=1;entryX=1;entryY=0.5;entryDx=0;entryDy=0;entryPerimeter=0;exitX=0.5;exitY=1;exitDx=0;exitDy=0;" edge="1" parent="1" source="WxPixu1MxdqewnaVAmA1-121" target="WxPixu1MxdqewnaVAmA1-11">
          <mxGeometry relative="1" as="geometry">
            <mxPoint x="1090" y="1700" as="sourcePoint" />
          </mxGeometry>
        </mxCell>
        <mxCell id="WxPixu1MxdqewnaVAmA1-122" value="" style="edgeStyle=orthogonalEdgeStyle;rounded=0;orthogonalLoop=1;jettySize=auto;html=1;" edge="1" parent="1" source="WxPixu1MxdqewnaVAmA1-99" target="WxPixu1MxdqewnaVAmA1-121">
          <mxGeometry relative="1" as="geometry" />
        </mxCell>
        <mxCell id="WxPixu1MxdqewnaVAmA1-99" value="PostAnalysis.run" style="rounded=0;whiteSpace=wrap;html=1;" vertex="1" parent="1">
          <mxGeometry x="1020" y="1390" width="120" height="60" as="geometry" />
        </mxCell>
        <mxCell id="WxPixu1MxdqewnaVAmA1-111" value="" style="edgeStyle=orthogonalEdgeStyle;rounded=0;orthogonalLoop=1;jettySize=auto;html=1;" edge="1" parent="1" source="WxPixu1MxdqewnaVAmA1-101" target="WxPixu1MxdqewnaVAmA1-110">
          <mxGeometry relative="1" as="geometry" />
        </mxCell>
        <mxCell id="WxPixu1MxdqewnaVAmA1-101" value="PostAnalysis.run" style="whiteSpace=wrap;html=1;rounded=0;" vertex="1" parent="1">
          <mxGeometry x="1020" y="585" width="120" height="60" as="geometry" />
        </mxCell>
        <mxCell id="WxPixu1MxdqewnaVAmA1-105" style="edgeStyle=orthogonalEdgeStyle;rounded=0;orthogonalLoop=1;jettySize=auto;html=1;exitX=0.5;exitY=1;exitDx=0;exitDy=0;exitPerimeter=0;entryX=0.5;entryY=0;entryDx=0;entryDy=0;" edge="1" parent="1" source="WxPixu1MxdqewnaVAmA1-103" target="WxPixu1MxdqewnaVAmA1-101">
          <mxGeometry relative="1" as="geometry" />
        </mxCell>
        <mxCell id="WxPixu1MxdqewnaVAmA1-109" value="存在" style="edgeLabel;html=1;align=center;verticalAlign=middle;resizable=0;points=[];" vertex="1" connectable="0" parent="WxPixu1MxdqewnaVAmA1-105">
          <mxGeometry x="-0.2" y="4" relative="1" as="geometry">
            <mxPoint as="offset" />
          </mxGeometry>
        </mxCell>
        <mxCell id="WxPixu1MxdqewnaVAmA1-108" value="" style="group" vertex="1" connectable="0" parent="1">
          <mxGeometry x="1030" y="440" width="160" height="90" as="geometry" />
        </mxCell>
        <mxCell id="WxPixu1MxdqewnaVAmA1-103" value="latest_trans_sys" style="strokeWidth=2;html=1;shape=mxgraph.flowchart.decision;whiteSpace=wrap;" vertex="1" parent="WxPixu1MxdqewnaVAmA1-108">
          <mxGeometry y="15" width="100" height="75" as="geometry" />
        </mxCell>
        <mxCell id="WxPixu1MxdqewnaVAmA1-107" value="检查是否存在最新的传输系统" style="text;html=1;strokeColor=none;fillColor=none;align=center;verticalAlign=middle;whiteSpace=wrap;rounded=0;" vertex="1" parent="WxPixu1MxdqewnaVAmA1-108">
          <mxGeometry x="70" width="90" height="30" as="geometry" />
        </mxCell>
        <mxCell id="WxPixu1MxdqewnaVAmA1-113" value="" style="edgeStyle=orthogonalEdgeStyle;rounded=0;orthogonalLoop=1;jettySize=auto;html=1;" edge="1" parent="1" source="WxPixu1MxdqewnaVAmA1-110" target="WxPixu1MxdqewnaVAmA1-112">
          <mxGeometry relative="1" as="geometry" />
        </mxCell>
        <mxCell id="WxPixu1MxdqewnaVAmA1-110" value="更新分析迭代计数器ac" style="whiteSpace=wrap;html=1;rounded=0;" vertex="1" parent="1">
          <mxGeometry x="1020" y="690" width="120" height="60" as="geometry" />
        </mxCell>
        <mxCell id="WxPixu1MxdqewnaVAmA1-116" value="" style="edgeStyle=orthogonalEdgeStyle;rounded=0;orthogonalLoop=1;jettySize=auto;html=1;" edge="1" parent="1" source="WxPixu1MxdqewnaVAmA1-112" target="WxPixu1MxdqewnaVAmA1-115">
          <mxGeometry relative="1" as="geometry" />
        </mxCell>
        <mxCell id="WxPixu1MxdqewnaVAmA1-112" value="得到子目录名subdir" style="whiteSpace=wrap;html=1;rounded=0;" vertex="1" parent="1">
          <mxGeometry x="1020" y="800" width="120" height="60" as="geometry" />
        </mxCell>
        <mxCell id="WxPixu1MxdqewnaVAmA1-119" value="" style="edgeStyle=orthogonalEdgeStyle;rounded=0;orthogonalLoop=1;jettySize=auto;html=1;" edge="1" parent="1" source="WxPixu1MxdqewnaVAmA1-115" target="WxPixu1MxdqewnaVAmA1-118">
          <mxGeometry relative="1" as="geometry" />
        </mxCell>
        <mxCell id="WxPixu1MxdqewnaVAmA1-115" value="&amp;nbsp;Flags.Smt.&lt;br&gt;set_trace_subdir" style="whiteSpace=wrap;html=1;rounded=0;" vertex="1" parent="1">
          <mxGeometry x="1020" y="920" width="120" height="60" as="geometry" />
        </mxCell>
        <mxCell id="WxPixu1MxdqewnaVAmA1-117" value="设置SMT跟踪子目录为subdir" style="text;html=1;strokeColor=none;fillColor=none;align=center;verticalAlign=middle;whiteSpace=wrap;rounded=0;" vertex="1" parent="1">
          <mxGeometry x="1090" y="890" width="100" height="30" as="geometry" />
        </mxCell>
        <mxCell id="WxPixu1MxdqewnaVAmA1-120" style="edgeStyle=orthogonalEdgeStyle;rounded=0;orthogonalLoop=1;jettySize=auto;html=1;exitX=0.5;exitY=1;exitDx=0;exitDy=0;entryX=0.5;entryY=0;entryDx=0;entryDy=0;entryPerimeter=0;" edge="1" parent="1" source="WxPixu1MxdqewnaVAmA1-118" target="WxPixu1MxdqewnaVAmA1-93">
          <mxGeometry relative="1" as="geometry" />
        </mxCell>
        <mxCell id="WxPixu1MxdqewnaVAmA1-118" value="kind2Flow.analyze" style="whiteSpace=wrap;html=1;rounded=0;" vertex="1" parent="1">
          <mxGeometry x="1020" y="1060" width="120" height="60" as="geometry" />
        </mxCell>
        <mxCell id="WxPixu1MxdqewnaVAmA1-121" value="&lt;div&gt;ISys.&lt;/div&gt;&lt;div&gt;ordered_scopes_of&lt;/div&gt;" style="whiteSpace=wrap;html=1;rounded=0;" vertex="1" parent="1">
          <mxGeometry x="1020" y="1530" width="120" height="60" as="geometry" />
        </mxCell>
        <mxCell id="WxPixu1MxdqewnaVAmA1-123" value="生成每个系统的最后结果的列表，并按照特定顺序排列" style="text;html=1;strokeColor=none;fillColor=none;align=center;verticalAlign=middle;whiteSpace=wrap;rounded=0;" vertex="1" parent="1">
          <mxGeometry x="1150" y="1545" width="160" height="30" as="geometry" />
        </mxCell>
        <mxCell id="WxPixu1MxdqewnaVAmA1-124" style="edgeStyle=orthogonalEdgeStyle;rounded=0;orthogonalLoop=1;jettySize=auto;html=1;exitX=0.5;exitY=1;exitDx=0;exitDy=0;entryX=1;entryY=0.5;entryDx=0;entryDy=0;entryPerimeter=0;" edge="1" parent="1" source="WxPixu1MxdqewnaVAmA1-17" target="WxPixu1MxdqewnaVAmA1-11">
          <mxGeometry relative="1" as="geometry" />
        </mxCell>
        <mxCell id="WxPixu1MxdqewnaVAmA1-130" value="" style="group" vertex="1" connectable="0" parent="1">
          <mxGeometry x="250" y="1060" width="239.5" height="104.75" as="geometry" />
        </mxCell>
        <mxCell id="WxPixu1MxdqewnaVAmA1-72" value="Flags.Contracts.&lt;br&gt;check_contract_is_sat" style="strokeWidth=2;html=1;shape=mxgraph.flowchart.decision;whiteSpace=wrap;" vertex="1" parent="WxPixu1MxdqewnaVAmA1-130">
          <mxGeometry x="54.5" y="4.75" width="185" height="100" as="geometry" />
        </mxCell>
        <mxCell id="WxPixu1MxdqewnaVAmA1-129" value="合同的可没满足性检查" style="text;html=1;strokeColor=none;fillColor=none;align=center;verticalAlign=middle;whiteSpace=wrap;rounded=0;" vertex="1" parent="WxPixu1MxdqewnaVAmA1-130">
          <mxGeometry width="87" height="30" as="geometry" />
        </mxCell>
        <mxCell id="WxPixu1MxdqewnaVAmA1-131" value="" style="group" vertex="1" connectable="0" parent="1">
          <mxGeometry x="284.5" y="860" width="202.5" height="130" as="geometry" />
        </mxCell>
        <mxCell id="WxPixu1MxdqewnaVAmA1-64" value="可实现性检查" style="text;html=1;strokeColor=none;fillColor=none;align=center;verticalAlign=middle;whiteSpace=wrap;rounded=0;" vertex="1" parent="WxPixu1MxdqewnaVAmA1-131">
          <mxGeometry width="60" height="30" as="geometry" />
        </mxCell>
        <mxCell id="WxPixu1MxdqewnaVAmA1-66" value="ContractChecker.&lt;br style=&quot;border-color: var(--border-color);&quot;&gt;check_contract_realizability" style="strokeWidth=2;html=1;shape=mxgraph.flowchart.decision;whiteSpace=wrap;" vertex="1" parent="WxPixu1MxdqewnaVAmA1-131">
          <mxGeometry x="22.5" width="180" height="130" as="geometry" />
        </mxCell>
        <mxCell id="WxPixu1MxdqewnaVAmA1-132" style="edgeStyle=orthogonalEdgeStyle;rounded=0;orthogonalLoop=1;jettySize=auto;html=1;exitX=0.5;exitY=1;exitDx=0;exitDy=0;" edge="1" parent="1" source="WxPixu1MxdqewnaVAmA1-52" target="WxPixu1MxdqewnaVAmA1-11">
          <mxGeometry relative="1" as="geometry">
            <Array as="points">
              <mxPoint x="585" y="1420" />
              <mxPoint x="397" y="1420" />
            </Array>
          </mxGeometry>
        </mxCell>
      </root>
    </mxGraphModel>
  </diagram>
</mxfile>
